<?xml version="1.0" encoding="UTF-8"?>
<!DOCTYPE svg
PUBLIC "-//W3C//DTD SVG 1.1//EN"
       "http://www.w3.org/Graphics/SVG/1.1/DTD/svg11.dtd">
<svg viewBox="149 172 697 637" width="548px" height="465px" xmlns="http://www.w3.org/2000/svg" version="1.1">
   <line x1="323" y1="357" x2="333" y2="357" style="stroke:#bbb;stroke-width:1;"/>
   <line x1="375" y1="493" x2="365" y2="493" style="stroke:#bbb;stroke-width:1;"/>
   <line x1="333" y1="357" x2="375" y2="493" style="stroke:#bbb;stroke-width:1;"/>
   <line x1="330.5" y1="357" x2="326.96446609407" y2="360.53553390593" style="stroke:#bbb;stroke-width:2;"/>
   <line x1="330.5" y1="357" x2="326.96446609407" y2="353.46446609407" style="stroke:#bbb;stroke-width:2;"/>
   <line x1="370" y1="493" x2="373.53553390593" y2="496.53553390593" style="stroke:#bbb;stroke-width:2;"/>
   <line x1="370" y1="493" x2="373.53553390593" y2="489.46446609407" style="stroke:#bbb;stroke-width:2;"/>
   <rect width="107" height="20" x="258" y="463" style="fill:#007;stroke:black;"/>
   <text width="107" height="20" x="263" y="477" style="fill:#fff;" font-family="Arial" font-size="16px"> clientes_emilly</text>
   <rect width="107" height="20" x="258" y="483" style="fill:#aea;stroke:black;"/>
   <text width="107" height="20" x="263" y="497" style="fill:black;" font-family="Arial" font-size="16px">idcli</text>
   <rect width="107" height="20" x="258" y="503" style="fill:none;stroke:black;"/>
   <text width="107" height="20" x="263" y="517" style="fill:black;" font-family="Arial" font-size="16px">nomecli</text>
   <rect width="107" height="20" x="258" y="523" style="fill:none;stroke:black;"/>
   <text width="107" height="20" x="263" y="537" style="fill:black;" font-family="Arial" font-size="16px">endcli</text>
   <rect width="107" height="20" x="258" y="543" style="fill:none;stroke:black;"/>
   <text width="107" height="20" x="263" y="557" style="fill:black;" font-family="Arial" font-size="16px">fonecli</text>
   <rect width="107" height="20" x="258" y="563" style="fill:none;stroke:black;"/>
   <text width="107" height="20" x="263" y="577" style="fill:black;" font-family="Arial" font-size="16px">emailcli</text>
   <rect width="159" height="20" x="164" y="187" style="fill:#007;stroke:black;"/>
   <text width="159" height="20" x="169" y="201" style="fill:#fff;" font-family="Arial" font-size="16px"> ordem_servico_emilly</text>
   <rect width="159" height="20" x="164" y="207" style="fill:#aea;stroke:black;"/>
   <text width="159" height="20" x="169" y="221" style="fill:black;" font-family="Arial" font-size="16px">os</text>
   <rect width="159" height="20" x="164" y="227" style="fill:none;stroke:black;"/>
   <text width="159" height="20" x="169" y="241" style="fill:black;" font-family="Arial" font-size="16px">data_os</text>
   <rect width="159" height="20" x="164" y="247" style="fill:none;stroke:black;"/>
   <text width="159" height="20" x="169" y="261" style="fill:black;" font-family="Arial" font-size="16px">equipamento</text>
   <rect width="159" height="20" x="164" y="267" style="fill:none;stroke:black;"/>
   <text width="159" height="20" x="169" y="281" style="fill:black;" font-family="Arial" font-size="16px">defeito</text>
   <rect width="159" height="20" x="164" y="287" style="fill:none;stroke:black;"/>
   <text width="159" height="20" x="169" y="301" style="fill:black;" font-family="Arial" font-size="16px">servico</text>
   <rect width="159" height="20" x="164" y="307" style="fill:none;stroke:black;"/>
   <text width="159" height="20" x="169" y="321" style="fill:black;" font-family="Arial" font-size="16px">tecnico</text>
   <rect width="159" height="20" x="164" y="327" style="fill:none;stroke:black;"/>
   <text width="159" height="20" x="169" y="341" style="fill:black;" font-family="Arial" font-size="16px">valor</text>
   <rect width="159" height="20" x="164" y="347" style="fill:none;stroke:black;"/>
   <text width="159" height="20" x="169" y="361" style="fill:black;" font-family="Arial" font-size="16px">idcli</text>
   <rect width="118" height="20" x="564" y="502" style="fill:#007;stroke:black;"/>
   <text width="118" height="20" x="569" y="516" style="fill:#fff;" font-family="Arial" font-size="16px"> usuarios_emilly</text>
   <rect width="118" height="20" x="564" y="522" style="fill:#aea;stroke:black;"/>
   <text width="118" height="20" x="569" y="536" style="fill:black;" font-family="Arial" font-size="16px">iduser</text>
   <rect width="118" height="20" x="564" y="542" style="fill:none;stroke:black;"/>
   <text width="118" height="20" x="569" y="556" style="fill:black;" font-family="Arial" font-size="16px">usuario</text>
   <rect width="118" height="20" x="564" y="562" style="fill:none;stroke:black;"/>
   <text width="118" height="20" x="569" y="576" style="fill:black;" font-family="Arial" font-size="16px">fone</text>
   <rect width="118" height="20" x="564" y="582" style="fill:none;stroke:black;"/>
   <text width="118" height="20" x="569" y="596" style="fill:black;" font-family="Arial" font-size="16px">login</text>
   <rect width="118" height="20" x="564" y="602" style="fill:none;stroke:black;"/>
   <text width="118" height="20" x="569" y="616" style="fill:black;" font-family="Arial" font-size="16px">senha</text>
</svg>
